<svg width="321" height="321" viewBox="0 0 321 321" fill="none" xmlns="http://www.w3.org/2000/svg">
<path d="M159.85 0.250977L159.851 0.50098L159.852 0.500965L159.85 0.250977ZM167.104 2.29297L166.966 2.5016L166.966 2.50189L167.104 2.29297ZM172.378 7.56152L172.17 7.6998L172.17 7.70008L172.378 7.56152ZM174.468 14.3975L174.218 14.3955V14.3964L174.468 14.3975ZM172.479 21.2344L172.266 21.103L172.266 21.1031L172.479 21.2344ZM168.792 25.792L168.947 25.988L168.948 25.9876L168.792 25.792ZM167.605 42.6562L167.356 42.6649L167.363 42.8883L167.586 42.9055L167.605 42.6562ZM170.8 42.9023L170.819 42.6531L170.819 42.6531L170.8 42.9023ZM181.293 44.5332L181.34 44.2876L181.339 44.2875L181.293 44.5332ZM195.894 48.2803L195.97 48.0423V48.0423L195.894 48.2803ZM210.95 54.4424L210.84 54.6667L210.84 54.6669L210.95 54.4424ZM224.638 62.2363L224.777 62.0289V62.0289L224.638 62.2363ZM237.468 71.8252L237.31 72.0193L237.486 72.1622L237.646 72.0008L237.468 71.8252ZM243.316 65.9004L243.139 65.7247L243.138 65.7248L243.316 65.9004ZM249.485 55.418L249.236 55.3999L249.236 55.4007L249.485 55.418ZM251.593 48.417L251.391 48.2695L251.391 48.2696L251.593 48.417ZM257.032 43.9502L256.911 43.7315L256.911 43.7315L257.032 43.9502ZM264.843 42.291L264.865 42.042L264.864 42.0419L264.843 42.291ZM272.371 45.1631L272.52 44.9626L272.52 44.9625L272.371 45.1631ZM277.198 51.543L276.964 51.631L276.964 51.6316L277.198 51.543ZM278.11 58.6084L278.357 58.6506L278.357 58.6505L278.11 58.6084ZM275.738 64.7607L275.951 64.8917L275.951 64.8917L275.738 64.7607ZM270.035 69.6465L269.924 69.4224L269.923 69.4228L270.035 69.6465ZM262.963 71.0234L263.006 70.7772L263.005 70.777L262.963 71.0234ZM247.906 82.1533L247.731 81.9752L247.573 82.1302L247.708 82.3055L247.906 82.1533ZM254.084 90.2021L254.282 90.0501L254.282 90.0499L254.084 90.2021ZM264.259 106.009L264.481 105.894L264.481 105.894L264.259 106.009ZM270.966 121.505L271.202 121.423V121.423L270.966 121.505ZM275.136 137.457L275.382 137.413V137.413L275.136 137.457ZM277.563 152.497L277.316 152.532L277.345 152.741L277.556 152.747L277.563 152.497ZM285.092 152.726L285.099 152.476H285.099L285.092 152.726ZM295.585 149.99L295.762 150.167V150.167L295.585 149.99ZM302.201 146.116L302.141 145.874V145.874L302.201 146.116ZM309.501 146.116L309.562 145.874V145.874L309.501 146.116ZM315.889 149.763L316.065 149.586H316.065L315.889 149.763ZM319.648 155.916L319.888 155.844V155.844L319.648 155.916ZM320.104 162.752L320.351 162.793V162.793L320.104 162.752ZM317.029 169.023L316.842 168.858L316.841 168.859L317.029 169.023ZM312.011 173.126L311.9 172.902L311.898 172.903L312.011 173.126ZM306.308 174.374V174.624V174.624V174.374ZM300.148 173.135L300.052 173.365V173.365L300.148 173.135ZM295.357 169.917L295.173 170.086L295.174 170.087L295.357 169.917ZM278.02 167.966L278.019 167.716L277.804 167.716L277.772 167.929L278.02 167.966ZM276.888 175.505L276.64 175.468V175.468L276.888 175.505ZM273.886 190.326L273.644 190.264L273.643 190.264L273.886 190.326ZM268.83 205.367L268.599 205.272L268.599 205.272L268.83 205.367ZM261.604 219.952L261.388 219.825L261.388 219.825L261.604 219.952ZM248.189 238.639L247.993 238.484L247.854 238.659L248.014 238.817L248.189 238.639ZM253.729 244.107L253.553 244.285L253.553 244.285L253.729 244.107ZM264.149 249.577V249.327V249.327V249.577ZM272.161 251.929L272.011 252.128L272.011 252.129L272.161 251.929ZM276.997 257.854L276.771 257.962L276.772 257.963L276.997 257.854ZM278.193 265.529L277.945 265.497L277.945 265.498L278.193 265.529ZM275.912 271.91L276.11 272.063L276.11 272.063L275.912 271.91ZM271.979 275.857L272.13 276.056L272.131 276.055L271.979 275.857ZM265.244 278.026L265.271 278.275L265.272 278.275L265.244 278.026ZM257.104 276.814L257.213 276.589L257.212 276.589L257.104 276.814ZM251.401 271.91L251.194 272.049L251.194 272.05L251.401 271.91ZM249.275 264.39L249.525 264.39V264.39H249.275ZM243.801 254.591L243.977 254.414V254.414L243.801 254.591ZM237.641 249.094L237.653 248.844L237.652 248.844L237.641 249.094ZM235.132 250.98L235.312 251.153L235.313 251.153L235.132 250.98ZM226.919 257.271L226.778 257.064L226.777 257.065L226.919 257.271ZM213.231 265.311L213.343 265.534L213.344 265.534L213.231 265.311ZM198.175 271.71L198.092 271.474L198.091 271.474L198.175 271.71ZM182.662 275.93L182.616 275.684L182.615 275.684L182.662 275.93ZM167.149 277.379L167.15 277.129L166.899 277.128V277.379H167.149ZM169.33 295.383L169.182 295.585L169.183 295.585L169.33 295.383ZM172.98 299.712L173.201 299.594V299.594L172.98 299.712ZM174.44 306.093H174.69V306.093H174.44ZM172.853 312.911L173.076 313.023V313.023L172.853 312.911ZM168.062 318.181L168.199 318.39L168.199 318.389L168.062 318.181ZM160.533 320.249L160.531 320.499H160.532L160.533 320.249ZM153.689 318.974L153.802 318.75L153.801 318.75L153.689 318.974ZM148.671 314.871L148.859 314.707L148.859 314.706L148.671 314.871ZM145.596 308.6L145.349 308.64V308.64L145.596 308.6ZM146.007 301.991L145.768 301.918V301.918L146.007 301.991ZM149.793 296.066L149.968 296.245L149.968 296.245L149.793 296.066ZM152.549 277.379L152.799 277.378L152.798 277.128L152.548 277.129L152.549 277.379ZM149.127 277.389L149.126 277.139H149.126L149.127 277.389ZM137.949 275.939L137.995 275.694V275.694L137.949 275.939ZM121.979 271.719L122.059 271.482L121.979 271.719ZM106.924 265.529L106.812 265.753L106.812 265.753L106.924 265.529ZM93.6924 257.781L93.8326 257.574L93.8322 257.574L93.6924 257.781ZM82.2588 248.666L82.4312 248.485L82.2546 248.317L82.0821 248.489L82.2588 248.666ZM76.3271 254.591L76.1505 254.414L76.1503 254.414L76.3271 254.591ZM70.4141 264.618H70.6641V264.618L70.4141 264.618ZM68.5977 271.683L68.8106 271.814L68.8107 271.813L68.5977 271.683ZM63.8076 276.522L63.9409 276.734L63.9418 276.733L63.8076 276.522ZM55.7588 278.118L55.7445 278.368L55.7454 278.368L55.7588 278.118ZM47.3184 275.328L47.468 275.128L47.4675 275.128L47.3184 275.328ZM42.5 268.947L42.7339 268.859L42.7338 268.859L42.5 268.947ZM41.5879 261.883L41.3415 261.84L41.3415 261.841L41.5879 261.883ZM43.96 255.73L43.747 255.599L43.747 255.599L43.96 255.73ZM48.751 251.282L48.6388 251.059V251.059L48.751 251.282ZM56.2793 249.832L56.2766 250.082L56.2776 250.082L56.2793 249.832ZM64.3369 246.532L64.1646 246.351L64.1643 246.351L64.3369 246.532ZM71.3359 238.183L71.5409 238.326L71.6484 238.172L71.5305 238.026L71.3359 238.183ZM66.7363 232.485L66.5417 232.642L66.5418 232.642L66.7363 232.485ZM58.6064 220.863L58.3917 220.991V220.991L58.6064 220.863ZM52.2002 208.558L51.9722 208.66V208.66L52.2002 208.558ZM47.1631 194.885L46.9234 194.956L46.9235 194.956L47.1631 194.885ZM44.0791 182.578L44.3251 182.533L44.3249 182.533L44.0791 182.578ZM42.1348 167.993L42.3834 167.967L42.3597 167.743H42.1348V167.993ZM25.0254 169.252L25.2453 169.371L25.2454 169.371L25.0254 169.252ZM21.1475 172.442L21.2761 172.657L21.277 172.656L21.1475 172.442ZM14.5312 174.374L14.5312 174.624H14.5325L14.5312 174.374ZM7.75195 172.779L7.64474 173.005H7.64474L7.75195 172.779ZM2.21289 167.993L2.00625 168.134L2.00695 168.135L2.21289 167.993ZM0.324219 159.161L0.074565 159.148L0.0745557 159.148L0.324219 159.161ZM3.80957 150.246L3.98875 150.42L3.98891 150.42L3.80957 150.246ZM10.4258 146.08L10.3641 145.838L10.3633 145.838L10.4258 146.08ZM17.7256 146.235L17.6613 146.477L17.6616 146.477L17.7256 146.235ZM24.1133 149.881L23.9326 150.054L23.933 150.054L24.1133 149.881ZM41.6787 152.516L41.6784 152.766L41.8905 152.766L41.9253 152.557L41.6787 152.516ZM43.3125 142.707L43.5591 142.748L43.5591 142.748L43.3125 142.707ZM47.9844 123.783L47.7473 123.704L47.7472 123.704L47.9844 123.783ZM54.4727 107.831L54.2493 107.719L54.2492 107.719L54.4727 107.831ZM60.2578 97.3486L60.4678 97.4843L60.4682 97.4836L60.2578 97.3486ZM66.9648 88.0049L66.7666 87.8526L66.7663 87.8529L66.9648 88.0049ZM71.3359 81.8525L71.5859 81.8533V81.8525H71.3359ZM66.0889 75.8818L66.2701 75.7097L66.27 75.7095L66.0889 75.8818ZM57.1914 70.9141L57.1544 70.6668L57.1542 70.6669L57.1914 70.9141ZM49.4531 69.3643L49.3391 69.5867L49.3393 69.5869L49.4531 69.3643ZM43.5586 64.0771L43.3411 64.2005L43.3414 64.2009L43.5586 64.0771ZM41.7158 56.7207L41.9658 56.7188L41.9658 56.7184L41.7158 56.7207ZM44.0244 48.9727L44.2335 49.1097L44.2337 49.1094L44.0244 48.9727ZM49.7275 43.7949L49.6203 43.5691L49.6203 43.5691L49.7275 43.7949ZM56.5068 42.2275L56.5093 41.9776H56.5092L56.5068 42.2275ZM63.123 44.1143L63.2484 43.898V43.898L63.123 44.1143ZM68.1055 48.417L68.3074 48.2696L68.3073 48.2695L68.1055 48.417ZM70.2129 55.418L70.4623 55.4006L70.4622 55.3999L70.2129 55.418ZM82.1309 71.8252L81.9522 72.0001L82.1071 72.1583L82.2829 72.0237L82.1309 71.8252ZM90.1885 65.6543L90.3405 65.8528L90.3406 65.8527L90.1885 65.6543ZM107.38 54.9707L107.269 54.7466V54.7466L107.38 54.9707ZM123.805 48.1338L123.728 47.8957V47.8957L123.805 48.1338ZM138.405 44.4424L138.451 44.6882V44.6882L138.405 44.4424ZM152.549 43.1113L152.548 43.3613L152.798 43.3622L152.799 43.1119L152.549 43.1113ZM152.567 35.1357L152.317 35.1351V35.1352L152.567 35.1357ZM149.848 24.4248L150.024 24.2479L150.024 24.2474L149.848 24.4248ZM146.198 18.0439L146.441 17.9843L146.441 17.9835L146.198 18.0439ZM146.207 11.207L146.447 11.2765L146.448 11.2745L146.207 11.207ZM148.461 5.96582L148.252 5.82899V5.829L148.461 5.96582ZM152.777 2.0918L152.647 1.87833L152.647 1.87874L152.777 2.0918ZM113.771 217.517L113.948 217.693L113.948 217.693L113.771 217.517ZM92.8242 238.613L92.6468 238.437L92.4523 238.633L92.6665 238.807L92.8242 238.613ZM107.39 249.115L107.517 248.9L107.516 248.9L107.39 249.115ZM120.606 255.521L120.7 255.29L120.699 255.289L120.606 255.521ZM134.733 260.202L134.796 259.96L134.796 259.96L134.733 260.202ZM147.275 262.602L147.304 262.353H147.304L147.275 262.602ZM152.981 263.25L152.953 263.498L153.232 263.53L153.231 263.25L152.981 263.25ZM152.963 203.482L153.213 203.482L153.213 203.271L153.004 203.236L152.963 203.482ZM140.421 199.386L140.306 199.608L140.306 199.608L140.421 199.386ZM134.706 196.42L134.821 196.198L134.658 196.113L134.529 196.244L134.706 196.42ZM180.735 198.984L180.61 198.768L180.609 198.768L180.735 198.984ZM171.867 202.78L171.932 203.022L171.932 203.022L171.867 202.78ZM167.528 203.939L167.464 203.698L167.278 203.747L167.278 203.94L167.528 203.939ZM167.547 262.794L167.297 262.794L167.297 263.044H167.547V262.794ZM180.99 261.352L180.94 261.107L180.94 261.107L180.99 261.352ZM193.523 258.085L193.445 257.848L193.444 257.848L193.523 258.085ZM207.195 252.209L207.084 251.985V251.985L207.195 252.209ZM221.551 243.604L221.403 243.403L221.402 243.403L221.551 243.604ZM227.476 238.385L227.712 238.304L227.712 238.304L227.476 238.385ZM206.247 217.024L206.423 216.846L206.422 216.846L206.247 217.024ZM185.256 196.356L185.431 196.178L185.295 196.044L185.13 196.14L185.256 196.356ZM203.367 167.896V167.646H203.182L203.128 167.824L203.367 167.896ZM201.781 173.144L201.542 173.071L201.542 173.072L201.781 173.144ZM197.926 182.04L197.714 181.908L197.713 181.908L197.926 182.04ZM195.656 185.689L195.444 185.557L195.339 185.726L195.479 185.866L195.656 185.689ZM238.185 228.211L238.008 228.388L238.198 228.578L238.374 228.374L238.185 228.211ZM248.184 214.889L247.972 214.755L247.972 214.756L248.184 214.889ZM255.111 201.658L254.881 201.561L254.881 201.561L255.111 201.658ZM260.069 186.603L260.312 186.663V186.663L260.069 186.603ZM262.686 173.144L262.437 173.117V173.117L262.686 173.144ZM263.25 167.896L263.499 167.923L263.528 167.646H263.25V167.896ZM117.416 167.896L117.658 167.835L117.61 167.646H117.416V167.896ZM57.25 169.493L57 169.492V169.493H57.25ZM58.5898 178.846L58.8362 178.803L58.8362 178.803L58.5898 178.846ZM62.2812 193.445L62.5179 193.365L62.5176 193.364L62.2812 193.445ZM68.7529 208.045L68.9737 207.928L68.9736 207.927L68.7529 208.045ZM77.6035 221.987L77.8023 221.836L77.8022 221.836L77.6035 221.987ZM82.3242 228.175L82.1255 228.326L82.2987 228.554L82.5009 228.352L82.3242 228.175ZM124.872 185.689L125.049 185.866L125.181 185.734L125.091 185.57L124.872 185.689ZM118.4 171.774L118.158 171.836L118.158 171.836L118.4 171.774ZM161.622 131.689L161.611 131.939L161.612 131.939L161.622 131.689ZM149.773 133.24L149.868 133.472L149.868 133.471L149.773 133.24ZM142.253 137.355L142.102 137.156L142.101 137.157L142.253 137.355ZM136.657 143.487L136.45 143.347V143.347L136.657 143.487ZM132.437 152.841L132.196 152.771L132.196 152.772L132.437 152.841ZM131.279 163.334L131.03 163.355L131.03 163.355L131.279 163.334ZM133.64 172.459L133.866 172.353L133.866 172.353L133.64 172.459ZM139.026 180.534L139.215 180.37L139.215 180.37L139.026 180.534ZM147.494 186.922L147.386 187.147L147.386 187.147L147.494 186.922ZM160.255 189.34V189.59V189.59V189.34ZM173.016 186.912L173.125 187.137L173.125 187.137L173.016 186.912ZM181.619 180.525L181.434 180.357L181.434 180.357L181.619 180.525ZM187.079 172.459L186.852 172.355L186.852 172.355L187.079 172.459ZM188.957 160.597L188.707 160.596V160.597H188.957ZM186.541 147.822L186.766 147.713L186.766 147.713L186.541 147.822ZM180.389 139.382L180.558 139.198L180.558 139.198L180.389 139.382ZM172.787 133.979L172.673 134.202L172.674 134.202L172.787 133.979ZM82.5977 93.0732V92.8232H82.5963L82.5977 93.0732ZM77.9678 98.3203L77.7689 98.1688V98.1688L77.9678 98.3203ZM70.7764 109.042L70.5605 108.916L70.5602 108.916L70.7764 109.042ZM64.123 123.186L63.8909 123.093L63.8909 123.093L64.123 123.186ZM58.9727 140.066L59.2175 140.117L59.2176 140.116L58.9727 140.066ZM57.2773 150.331L57.5273 150.333V150.331L57.2773 150.331ZM57.2598 152.385L57.0098 152.383L57.0076 152.633L57.2578 152.635L57.2598 152.385ZM116.96 152.621L117.017 152.864L117.018 152.864L116.96 152.621ZM118.573 148.972L118.818 149.021V149.021L118.573 148.972ZM122.046 140.066L121.823 139.953L121.823 139.954L122.046 140.066ZM124.826 134.591L125.049 134.704L125.131 134.542L125.003 134.414L124.826 134.591ZM237.948 93.0732L237.949 92.8232H237.948V93.0732ZM216.301 113.987L216.124 113.81L216.124 113.81L216.301 113.987ZM195.346 134.901L195.169 134.724L195.028 134.865L195.134 135.034L195.346 134.901ZM201.308 146.909L201.069 146.984L201.069 146.985L201.308 146.909ZM202.894 151.928L202.655 152.003L202.71 152.176L202.892 152.178L202.894 151.928ZM263.25 152.385L263.248 152.635L263.528 152.637L263.499 152.359L263.25 152.385ZM260.534 135.504L260.776 135.442V135.442L260.534 135.504ZM255.995 121.816L256.227 121.724V121.724L255.995 121.816ZM249.605 108.586L249.821 108.46L249.821 108.46L249.605 108.586ZM242.396 97.8643L242.593 97.7104L242.592 97.7099L242.396 97.8643ZM152.973 57.4873L153.223 57.4871L153.222 57.2327L152.968 57.2373L152.973 57.4873ZM139.3 58.9199L139.247 58.6756L139.246 58.6757L139.3 58.9199ZM127.451 62.1494L127.374 61.9117L127.373 61.9119L127.451 62.1494ZM112.868 68.5732L112.753 68.3512V68.3512L112.868 68.5732ZM98.9678 77.1328L98.8141 76.9356V76.9356L98.9678 77.1328ZM93.9551 82.1055L93.713 82.168L93.7133 82.1693L93.9551 82.1055ZM114.69 103.585L114.513 103.761L114.513 103.761L114.69 103.585ZM135.198 124.171L135.021 124.347L135.145 124.471L135.303 124.398L135.198 124.171ZM150.028 117.966L149.97 117.723L149.97 117.723L150.028 117.966ZM153.018 117.254L153.076 117.497L153.268 117.451L153.268 117.254L153.018 117.254ZM167.684 87.4805L167.434 87.4793V87.4794L167.684 87.4805ZM167.556 117.71L167.306 117.709L167.305 117.924L167.517 117.957L167.556 117.71ZM180.088 121.434L179.982 121.66L179.982 121.66L180.088 121.434ZM185.785 124.098L185.679 124.324L185.838 124.398L185.962 124.274L185.785 124.098ZM227.712 82.124L227.889 82.3007L228.076 82.1133L227.878 81.9372L227.712 82.124ZM217.23 74.2031L217.091 74.4107L217.092 74.411L217.23 74.2031ZM203.559 66.502L203.665 66.2758L203.665 66.2756L203.559 66.502ZM188.52 60.8271L188.59 60.5871V60.5871L188.52 60.8271ZM174.291 57.916L174.265 58.1647L174.266 58.1648L174.291 57.916ZM167.82 57.25L167.846 57.0013L167.572 56.9731L167.57 57.2489L167.82 57.25ZM159.85 0.250977L159.852 0.500965C162.589 0.474129 164.885 1.12757 166.966 2.5016L167.104 2.29297L167.241 2.08434C165.07 0.650927 162.676 -0.0267399 159.847 0.000988573L159.85 0.250977ZM167.104 2.29297L166.966 2.50189C168.671 3.6225 171.02 5.96813 172.17 7.6998L172.378 7.56152L172.586 7.42325C171.4 5.6364 169.003 3.24235 167.241 2.08405L167.104 2.29297ZM172.378 7.56152L172.17 7.70008C173.503 9.70211 174.236 12.1143 174.218 14.3955L174.468 14.3975L174.718 14.3994C174.736 12.0138 173.972 9.50438 172.586 7.42297L172.378 7.56152ZM174.468 14.3975L174.218 14.3964C174.209 16.4453 173.374 19.3086 172.266 21.103L172.479 21.2344L172.691 21.3657C173.846 19.4957 174.708 16.5427 174.718 14.3985L174.468 14.3975ZM172.479 21.2344L172.266 21.1031C171.729 21.9724 171.049 22.9162 170.386 23.7353C169.72 24.5581 169.084 25.2402 168.636 25.5963L168.792 25.792L168.948 25.9876C169.44 25.5962 170.104 24.8791 170.775 24.0498C171.449 23.2167 172.142 22.2556 172.691 21.3657L172.479 21.2344ZM168.792 25.792L168.637 25.596C168.243 25.9076 167.918 26.2374 167.675 26.7956C167.438 27.3419 167.287 28.0915 167.2 29.2315C167.026 31.5105 167.105 35.4466 167.356 42.6649L167.605 42.6562L167.855 42.6476C167.604 35.4179 167.528 31.5143 167.699 29.2695C167.784 28.1475 167.93 27.4641 168.134 26.9948C168.333 26.5374 168.592 26.2689 168.947 25.988L168.792 25.792ZM167.605 42.6562L167.586 42.9055L170.781 43.1516L170.8 42.9023L170.819 42.6531L167.625 42.407L167.605 42.6562ZM170.8 42.9023L170.78 43.1516C172.518 43.2872 177.232 44.0224 181.247 44.7789L181.293 44.5332L181.339 44.2875C177.325 43.531 172.587 42.7911 170.819 42.6531L170.8 42.9023ZM181.293 44.5332L181.246 44.7788C185.251 45.5425 191.811 47.2269 195.817 48.5182L195.894 48.2803L195.97 48.0423C191.946 46.7449 185.365 45.0553 181.34 44.2876L181.293 44.5332ZM195.894 48.2803L195.817 48.5182C199.819 49.8085 206.588 52.5749 210.84 54.6667L210.95 54.4424L211.061 54.2181C206.789 52.1168 199.998 49.3408 195.97 48.0423L195.894 48.2803ZM210.95 54.4424L210.84 54.6669C215.093 56.7503 221.243 60.2544 224.498 62.4438L224.638 62.2363L224.777 62.0289C221.499 59.8247 215.33 56.3094 211.06 54.2179L210.95 54.4424ZM224.638 62.2363L224.498 62.4438C227.758 64.6362 231.969 67.6849 237.31 72.0193L237.468 71.8252L237.625 71.6311C232.273 67.2878 228.051 64.2301 224.777 62.0289L224.638 62.2363ZM237.468 71.8252L237.646 72.0008L243.494 66.076L243.316 65.9004L243.138 65.7248L237.29 71.6496L237.468 71.8252ZM243.316 65.9004L243.494 66.0761C246.193 63.3441 247.688 61.7527 248.536 60.3107C249.396 58.8485 249.588 57.5478 249.735 55.4353L249.485 55.418L249.236 55.4007C249.09 57.4991 248.903 58.7005 248.105 60.0572C247.295 61.4342 245.851 62.9785 243.139 65.7247L243.316 65.9004ZM249.485 55.418L249.735 55.436C249.829 54.1339 250.095 52.755 250.464 51.5282C250.834 50.2973 251.303 49.2383 251.795 48.5644L251.593 48.417L251.391 48.2696C250.852 49.0087 250.363 50.1285 249.985 51.3841C249.606 52.6437 249.333 54.0588 249.236 55.3999L249.485 55.418ZM251.593 48.417L251.795 48.5645C252.269 47.9148 253.109 47.0917 254.088 46.288C255.065 45.4863 256.166 44.7161 257.153 44.1689L257.032 43.9502L256.911 43.7315C255.891 44.2964 254.765 45.085 253.771 45.9015C252.778 46.7158 251.902 47.5701 251.391 48.2695L251.593 48.417ZM257.032 43.9502L257.153 44.1689C258.489 43.4297 259.647 42.9599 260.846 42.7055C262.044 42.4511 263.296 42.4094 264.821 42.5401L264.843 42.291L264.864 42.0419C263.306 41.9084 262.002 41.9489 260.742 42.2164C259.481 42.484 258.276 42.9759 256.911 43.7315L257.032 43.9502ZM264.843 42.291L264.821 42.54C267.457 42.773 270.078 43.7687 272.222 45.3637L272.371 45.1631L272.52 44.9625C270.302 43.3124 267.594 42.2831 264.865 42.042L264.843 42.291ZM272.371 45.1631L272.222 45.3636C274.228 46.8577 276.096 49.3251 276.964 51.631L277.198 51.543L277.432 51.4549C276.53 49.0577 274.602 46.5129 272.52 44.9626L272.371 45.1631ZM277.198 51.543L276.964 51.6316C277.865 54.0069 278.192 56.6421 277.864 58.5663L278.11 58.6084L278.357 58.6505C278.704 56.6186 278.356 53.892 277.432 51.4543L277.198 51.543ZM278.11 58.6084L277.864 58.5662C277.569 60.2915 276.514 63.0232 275.525 64.6298L275.738 64.7607L275.951 64.8917C276.97 63.2353 278.05 60.4439 278.357 58.6506L278.11 58.6084ZM275.738 64.7607L275.525 64.6297C275.043 65.4143 274.172 66.3519 273.148 67.2291C272.127 68.1044 270.969 68.9051 269.924 69.4225L270.035 69.6465L270.146 69.8705C271.237 69.3305 272.429 68.504 273.474 67.6088C274.517 66.7153 275.43 65.7388 275.951 64.8917L275.738 64.7607ZM270.035 69.6465L269.923 69.4228C267.181 70.7925 265.219 71.1663 263.006 70.7772L262.963 71.0234L262.92 71.2697C265.269 71.6827 267.341 71.2716 270.147 69.8701L270.035 69.6465ZM262.963 71.0234L263.005 70.777C262.257 70.649 261.619 70.5666 260.913 70.7142C260.208 70.8618 259.461 71.2329 258.469 71.9601C256.493 73.4083 253.459 76.3352 247.731 81.9752L247.906 82.1533L248.082 82.3315C253.824 76.6776 256.826 73.7844 258.765 72.3634C259.73 71.6561 260.41 71.3304 261.016 71.2036C261.621 71.077 262.177 71.1427 262.921 71.2699L262.963 71.0234ZM247.906 82.1533L247.708 82.3055L253.886 90.3544L254.084 90.2021L254.282 90.0499L248.105 82.0011L247.906 82.1533ZM254.084 90.2021L253.886 90.3542C257.272 94.7743 261.836 101.872 264.037 106.124L264.259 106.009L264.481 105.894C262.265 101.613 257.685 94.4902 254.282 90.0501L254.084 90.2021ZM264.259 106.009L264.037 106.123C266.231 110.38 269.247 117.333 270.73 121.587L270.966 121.505L271.202 121.423C269.71 117.145 266.685 110.17 264.481 105.894L264.259 106.009ZM270.966 121.505L270.73 121.587C272.213 125.841 274.089 133.002 274.89 137.501L275.136 137.457L275.382 137.413C274.577 132.888 272.694 125.701 271.202 121.423L270.966 121.505ZM275.136 137.457L274.89 137.501C275.692 142.011 276.568 147.24 277.316 152.532L277.563 152.497L277.811 152.462C277.062 147.162 276.185 141.927 275.382 137.413L275.136 137.457ZM277.563 152.497L277.556 152.747L285.084 152.975L285.092 152.726L285.099 152.476L277.571 152.247L277.563 152.497ZM285.092 152.726L285.084 152.975C286.935 153.032 288.341 153.072 289.451 153.054C290.56 153.036 291.39 152.96 292.085 152.779C293.493 152.412 294.309 151.618 295.762 150.167L295.585 149.99L295.408 149.813C293.941 151.279 293.215 151.967 291.959 152.295C291.322 152.462 290.539 152.537 289.442 152.555C288.347 152.572 286.954 152.533 285.099 152.476L285.092 152.726ZM295.585 149.99L295.762 150.167C296.559 149.371 297.693 148.54 298.879 147.845C300.067 147.15 301.29 146.602 302.262 146.359L302.201 146.116L302.141 145.874C301.105 146.132 299.837 146.705 298.626 147.414C297.415 148.123 296.244 148.978 295.408 149.813L295.585 149.99ZM302.201 146.116L302.262 146.359C304.655 145.761 307.047 145.761 309.44 146.359L309.501 146.116L309.562 145.874C307.089 145.256 304.614 145.256 302.141 145.874L302.201 146.116ZM309.501 146.116L309.44 146.359C310.415 146.602 311.613 147.126 312.759 147.781C313.905 148.435 314.98 149.208 315.712 149.94L315.889 149.763L316.065 149.586C315.292 148.813 314.177 148.014 313.007 147.346C311.837 146.679 310.595 146.132 309.562 145.874L309.501 146.116ZM315.889 149.763L315.712 149.94C317.191 151.417 318.856 154.153 319.409 155.988L319.648 155.916L319.888 155.844C319.309 153.924 317.598 151.117 316.065 149.586L315.889 149.763ZM319.648 155.916L319.409 155.988C319.964 157.83 320.162 160.872 319.858 162.711L320.104 162.752L320.351 162.793C320.668 160.877 320.464 157.758 319.888 155.844L319.648 155.916ZM320.104 162.752L319.858 162.711C319.708 163.617 319.295 164.769 318.743 165.894C318.192 167.018 317.512 168.096 316.842 168.858L317.029 169.023L317.217 169.188C317.925 168.383 318.627 167.264 319.192 166.114C319.755 164.965 320.191 163.764 320.351 162.793L320.104 162.752ZM317.029 169.023L316.841 168.859C315.478 170.419 313.24 172.237 311.9 172.902L312.011 173.126L312.122 173.35C313.537 172.648 315.825 170.782 317.218 169.188L317.029 169.023ZM312.011 173.126L311.898 172.903C310.561 173.575 308.027 174.124 306.308 174.124V174.374V174.624C308.092 174.624 310.705 174.062 312.123 173.349L312.011 173.126ZM306.308 174.374V174.124C304.589 174.124 301.848 173.575 300.245 172.904L300.148 173.135L300.052 173.365C301.716 174.062 304.523 174.624 306.308 174.624V174.374ZM300.148 173.135L300.245 172.904C298.639 172.232 296.516 170.801 295.541 169.747L295.357 169.917L295.174 170.087C296.206 171.202 298.392 172.67 300.052 173.365L300.148 173.135ZM295.357 169.917L295.542 169.748C295.132 169.302 294.734 168.934 294.13 168.648C293.532 168.364 292.749 168.168 291.58 168.03C289.248 167.754 285.295 167.702 278.019 167.716L278.02 167.966L278.02 168.216C285.308 168.202 289.226 168.255 291.522 168.527C292.667 168.662 293.388 168.85 293.916 169.1C294.437 169.347 294.784 169.662 295.173 170.086L295.357 169.917ZM278.02 167.966L277.772 167.929L276.64 175.468L276.888 175.505L277.135 175.542L278.267 168.003L278.02 167.966ZM276.888 175.505L276.64 175.468C276.021 179.598 274.673 186.262 273.644 190.264L273.886 190.326L274.128 190.388C275.161 186.369 276.513 179.689 277.135 175.542L276.888 175.505ZM273.886 190.326L273.643 190.264C272.625 194.263 270.356 201.025 268.599 205.272L268.83 205.367L269.061 205.463C270.826 201.196 273.103 194.411 274.128 190.388L273.886 190.326ZM268.83 205.367L268.599 205.272C266.851 209.519 263.608 216.071 261.388 219.825L261.604 219.952L261.819 220.079C264.052 216.304 267.305 209.73 269.061 205.462L268.83 205.367ZM261.604 219.952L261.388 219.825C259.179 223.567 255.263 229.3 247.993 238.484L248.189 238.639L248.385 238.794C255.661 229.601 259.593 223.849 261.819 220.079L261.604 219.952ZM248.189 238.639L248.014 238.817L253.553 244.285L253.729 244.107L253.904 243.93L248.365 238.461L248.189 238.639ZM253.729 244.107L253.553 244.285C256.232 246.93 257.682 248.332 259.062 249.057C260.464 249.793 261.786 249.827 264.149 249.827V249.577V249.327C261.768 249.327 260.571 249.284 259.295 248.614C257.997 247.932 256.608 246.599 253.904 243.93L253.729 244.107ZM264.149 249.577V249.827C266.057 249.827 267.419 249.952 268.602 250.299C269.781 250.644 270.798 251.214 272.011 252.128L272.161 251.929L272.312 251.729C271.069 250.793 269.998 250.187 268.742 249.819C267.491 249.453 266.074 249.327 264.149 249.327V249.577ZM272.161 251.929L272.011 252.129C273.694 253.389 275.849 256.029 276.771 257.962L276.997 257.854L277.223 257.747C276.266 255.742 274.059 253.039 272.311 251.729L272.161 251.929ZM276.997 257.854L276.772 257.963C278 260.515 278.323 262.563 277.945 265.497L278.193 265.529L278.441 265.561C278.83 262.534 278.494 260.389 277.222 257.746L276.997 257.854ZM278.193 265.529L277.945 265.498C277.807 266.607 277.483 267.87 277.074 269.011C276.663 270.157 276.174 271.159 275.714 271.758L275.912 271.91L276.11 272.063C276.617 271.403 277.127 270.345 277.545 269.18C277.964 268.011 278.297 266.712 278.441 265.56L278.193 265.529ZM275.912 271.91L275.714 271.757C274.76 272.99 273.004 274.752 271.826 275.659L271.979 275.857L272.131 276.055C273.344 275.121 275.13 273.328 276.11 272.063L275.912 271.91ZM271.979 275.857L271.827 275.659C271.264 276.088 270.241 276.549 269.027 276.94C267.821 277.328 266.452 277.639 265.216 277.778L265.244 278.026L265.272 278.275C266.545 278.131 267.946 277.813 269.181 277.416C270.408 277.02 271.498 276.538 272.13 276.056L271.979 275.857ZM265.244 278.026L265.217 277.778C261.861 278.147 259.819 277.842 257.213 276.589L257.104 276.814L256.996 277.04C259.7 278.339 261.838 278.653 265.271 278.275L265.244 278.026ZM257.104 276.814L257.212 276.589C256.258 276.132 255.145 275.358 254.122 274.477C253.099 273.596 252.181 272.621 251.609 271.771L251.401 271.91L251.194 272.05C251.799 272.949 252.752 273.957 253.796 274.856C254.839 275.755 255.989 276.558 256.997 277.04L257.104 276.814ZM251.401 271.91L251.609 271.771C250.144 269.584 249.516 267.373 249.525 264.39L249.275 264.39L249.025 264.389C249.016 267.458 249.666 269.77 251.194 272.049L251.401 271.91ZM249.275 264.39H249.525C249.525 262.351 249.448 261.13 248.69 259.772C247.945 258.438 246.546 256.979 243.977 254.414L243.801 254.591L243.624 254.768C246.211 257.352 247.55 258.756 248.253 260.015C248.943 261.251 249.025 262.354 249.025 264.39H249.275ZM243.801 254.591L243.977 254.414C242.469 252.907 241.019 251.534 239.898 250.535C239.338 250.035 238.857 249.626 238.491 249.34C238.309 249.198 238.151 249.083 238.024 249.001C237.961 248.961 237.9 248.926 237.846 248.9C237.799 248.877 237.728 248.848 237.653 248.844L237.641 249.094L237.628 249.343C237.6 249.342 237.595 249.334 237.631 249.351C237.66 249.365 237.7 249.388 237.755 249.422C237.862 249.491 238.006 249.596 238.184 249.734C238.537 250.011 239.009 250.411 239.565 250.908C240.678 251.9 242.121 253.266 243.624 254.768L243.801 254.591ZM237.641 249.094L237.652 248.844C237.561 248.84 237.468 248.862 237.385 248.89C237.3 248.919 237.208 248.961 237.114 249.012C236.924 249.114 236.705 249.259 236.472 249.434C236.004 249.785 235.461 250.271 234.951 250.808L235.132 250.98L235.313 251.153C235.807 250.633 236.33 250.166 236.772 249.834C236.994 249.667 237.191 249.538 237.35 249.453C237.43 249.41 237.496 249.381 237.548 249.363C237.573 249.354 237.593 249.349 237.608 249.346C237.623 249.343 237.63 249.344 237.629 249.343L237.641 249.094ZM235.132 250.98L234.951 250.808C234.465 251.316 233.305 252.275 231.814 253.418C230.329 254.556 228.531 255.864 226.778 257.064L226.919 257.271L227.06 257.477C228.82 256.271 230.626 254.958 232.118 253.815C233.605 252.676 234.795 251.694 235.312 251.153L235.132 250.98ZM226.919 257.271L226.777 257.065C223.274 259.473 217.125 263.077 213.119 265.087L213.231 265.311L213.344 265.534C217.368 263.515 223.537 259.899 227.061 257.477L226.919 257.271ZM213.231 265.311L213.12 265.087C209.114 267.088 202.343 269.974 198.092 271.474L198.175 271.71L198.258 271.946C202.529 270.438 209.319 267.544 213.343 265.534L213.231 265.311ZM198.175 271.71L198.091 271.474C193.841 272.983 186.864 274.884 182.616 275.684L182.662 275.93L182.708 276.175C186.983 275.371 193.986 273.463 198.258 271.946L198.175 271.71ZM182.662 275.93L182.615 275.684C178.367 276.493 173.145 277.147 167.15 277.129L167.149 277.379L167.149 277.629C173.181 277.647 178.435 276.989 182.709 276.175L182.662 275.93ZM167.149 277.379H166.899V285.583H167.149H167.399V277.379H167.149ZM167.149 285.583H166.899C166.899 289.372 166.939 291.486 167.239 292.834C167.392 293.519 167.614 294.02 167.939 294.449C168.261 294.873 168.674 295.213 169.182 295.585L169.33 295.383L169.478 295.181C168.977 294.815 168.614 294.51 168.338 294.147C168.065 293.787 167.868 293.356 167.728 292.726C167.442 291.444 167.399 289.396 167.399 285.583H167.149ZM169.33 295.383L169.183 295.585C170.353 296.435 171.972 298.354 172.76 299.83L172.98 299.712L173.201 299.594C172.383 298.062 170.716 296.081 169.477 295.181L169.33 295.383ZM172.98 299.712L172.76 299.83C173.147 300.554 173.506 301.625 173.768 302.77C174.03 303.914 174.19 305.114 174.19 306.093H174.44H174.69C174.69 305.066 174.523 303.828 174.255 302.659C173.988 301.491 173.617 300.373 173.201 299.594L172.98 299.712ZM174.44 306.093H174.19C174.19 308.061 173.487 311.094 172.629 312.799L172.853 312.911L173.076 313.023C173.97 311.246 174.69 308.135 174.69 306.093H174.44ZM172.853 312.911L172.629 312.799C172.205 313.642 171.461 314.651 170.601 315.596C169.741 316.541 168.777 317.408 167.924 317.972L168.062 318.181L168.199 318.389C169.098 317.796 170.092 316.898 170.97 315.933C171.848 314.969 172.624 313.922 173.076 313.023L172.853 312.911ZM168.062 318.181L167.925 317.972C165.745 319.399 163.512 320.017 160.535 319.999L160.533 320.249L160.532 320.499C163.594 320.517 165.926 319.878 168.199 318.39L168.062 318.181ZM160.533 320.249L160.535 319.999C159.361 319.99 158.009 319.846 156.78 319.618C155.546 319.39 154.459 319.081 153.802 318.75L153.689 318.974L153.577 319.197C154.298 319.559 155.441 319.879 156.689 320.11C157.942 320.342 159.324 320.49 160.531 320.499L160.533 320.249ZM153.689 318.974L153.801 318.75C152.46 318.085 150.222 316.267 148.859 314.707L148.671 314.871L148.483 315.036C149.875 316.63 152.163 318.495 153.578 319.198L153.689 318.974ZM148.671 314.871L148.859 314.706C148.189 313.943 147.509 312.865 146.957 311.741C146.406 310.616 145.992 309.465 145.842 308.559L145.596 308.6L145.349 308.64C145.51 309.612 145.945 310.812 146.508 311.962C147.073 313.112 147.775 314.231 148.483 315.036L148.671 314.871ZM145.596 308.6L145.842 308.559C145.538 306.717 145.719 303.776 146.246 302.065L146.007 301.991L145.768 301.918C145.218 303.707 145.033 306.726 145.349 308.64L145.596 308.6ZM146.007 301.991L146.246 302.065C146.506 301.22 147.054 300.136 147.734 299.071C148.414 298.008 149.214 296.98 149.968 296.245L149.793 296.066L149.618 295.887C148.83 296.656 148.006 297.716 147.313 298.802C146.62 299.886 146.046 301.013 145.768 301.918L146.007 301.991ZM149.793 296.066L149.968 296.245C150.641 295.586 151.176 295.047 151.583 294.365C151.993 293.678 152.264 292.862 152.445 291.651C152.804 289.247 152.817 285.211 152.799 277.378L152.549 277.379L152.299 277.379C152.317 285.235 152.303 289.221 151.95 291.577C151.775 292.747 151.519 293.496 151.154 294.109C150.785 294.728 150.296 295.225 149.618 295.888L149.793 296.066ZM152.549 277.379L152.548 277.129L149.126 277.139L149.127 277.389L149.128 277.639L152.55 277.629L152.549 277.379ZM149.127 277.389L149.126 277.139C147.272 277.148 142.265 276.496 137.995 275.694L137.949 275.939L137.903 276.185C142.174 276.987 147.222 277.648 149.128 277.639L149.127 277.389ZM137.949 275.939L137.995 275.694C133.737 274.894 126.566 272.992 122.059 271.482L121.979 271.719L121.9 271.956C126.427 273.472 133.62 275.381 137.903 276.185L137.949 275.939ZM121.979 271.719L122.059 271.482C117.552 269.972 110.793 267.187 107.036 265.306L106.924 265.529L106.812 265.753C110.592 267.645 117.373 270.439 121.9 271.956L121.979 271.719ZM106.924 265.529L107.036 265.306C103.286 263.424 97.3366 259.947 93.8326 257.574L93.6924 257.781L93.5522 257.988C97.0746 260.374 103.043 263.861 106.812 265.753L106.924 265.529ZM93.6924 257.781L93.8322 257.574C90.3274 255.21 86.324 252.192 82.4312 248.485L82.2588 248.666L82.0864 248.847C86.0044 252.578 90.0312 255.613 93.5526 257.988L93.6924 257.781ZM82.2588 248.666L82.0821 248.489L76.1505 254.414L76.3271 254.591L76.5038 254.768L82.4355 248.843L82.2588 248.666ZM76.3271 254.591L76.1503 254.414C73.3897 257.176 71.8816 258.749 71.0747 260.117C70.2516 261.512 70.1595 262.692 70.1641 264.619L70.4141 264.618L70.6641 264.618C70.6595 262.707 70.7544 261.644 71.5054 260.371C72.2726 259.07 73.7257 257.547 76.504 254.768L76.3271 254.591ZM70.4141 264.618H70.1641C70.164 267.087 69.4695 269.784 68.3846 271.552L68.5977 271.683L68.8107 271.813C69.9522 269.953 70.664 267.162 70.6641 264.618H70.4141ZM68.5977 271.683L68.3847 271.552C67.4012 273.15 65.2755 275.292 63.6734 276.312L63.8076 276.522L63.9418 276.733C65.6062 275.674 67.7864 273.478 68.8106 271.814L68.5977 271.683ZM63.8076 276.522L63.6744 276.311C62.5589 277.014 61.5492 277.451 60.3437 277.69C59.1327 277.931 57.7127 277.973 55.7722 277.869L55.7588 278.118L55.7454 278.368C57.7013 278.473 59.1696 278.433 60.441 278.181C61.7177 277.928 62.7841 277.463 63.9409 276.734L63.8076 276.522ZM55.7588 278.118L55.773 277.869C53.8678 277.76 52.416 277.538 51.131 277.115C49.8485 276.692 48.7203 276.064 47.468 275.128L47.3184 275.328L47.1687 275.528C48.4531 276.488 49.6289 277.146 50.9744 277.59C52.3173 278.032 53.8173 278.258 55.7445 278.368L55.7588 278.118ZM47.3184 275.328L47.4675 275.128C45.4711 273.643 43.6021 271.157 42.7339 268.859L42.5 268.947L42.2661 269.036C43.1682 271.423 45.0959 273.987 47.1692 275.529L47.3184 275.328ZM42.5 268.947L42.7338 268.859C41.8331 266.483 41.5059 263.849 41.8343 261.925L41.5879 261.883L41.3415 261.841C40.9946 263.873 41.342 266.598 42.2662 269.036L42.5 268.947ZM41.5879 261.883L41.8343 261.925C42.1296 260.209 43.1847 257.468 44.1729 255.861L43.96 255.73L43.747 255.599C42.7279 257.256 41.6485 260.057 41.3415 261.84L41.5879 261.883ZM43.96 255.73L44.1729 255.861C44.6593 255.071 45.432 254.181 46.2894 253.385C47.1472 252.589 48.0747 251.902 48.8632 251.506L48.751 251.282L48.6388 251.059C47.7939 251.483 46.8277 252.204 45.9493 253.019C45.0705 253.834 44.2644 254.759 43.747 255.599L43.96 255.73ZM48.751 251.282L48.8632 251.506C49.6501 251.11 50.879 250.746 52.234 250.485C53.5856 250.224 55.0422 250.069 56.2766 250.082L56.2793 249.832L56.282 249.582C55.007 249.568 53.5161 249.728 52.1392 249.994C50.7658 250.259 49.4853 250.634 48.6388 251.059L48.751 251.282ZM56.2793 249.832L56.2776 250.082C58.2944 250.096 59.5831 250.009 60.7586 249.528C61.932 249.048 62.9686 248.184 64.5095 246.713L64.3369 246.532L64.1643 246.351C62.621 247.825 61.6453 248.625 60.5692 249.065C59.4953 249.505 58.2973 249.596 56.281 249.582L56.2793 249.832ZM64.3369 246.532L64.5093 246.713C66.4476 244.869 68.8221 242.221 71.5409 238.326L71.3359 238.183L71.1309 238.04C68.4298 241.91 66.0769 244.531 64.1646 246.351L64.3369 246.532ZM71.3359 238.183L71.5305 238.026L66.9308 232.328L66.7363 232.485L66.5418 232.642L71.1414 238.34L71.3359 238.183ZM66.7363 232.485L66.931 232.328C64.4101 229.201 60.7584 223.988 58.8212 220.735L58.6064 220.863L58.3917 220.991C60.3418 224.265 64.0073 229.498 66.5417 232.642L66.7363 232.485ZM58.6064 220.863L58.8212 220.735C56.8825 217.48 54.0029 211.956 52.4282 208.455L52.2002 208.558L51.9722 208.66C53.5548 212.178 56.4432 217.72 58.3917 220.991L58.6064 220.863ZM52.2002 208.558L52.4282 208.455C50.8546 204.957 48.5953 198.815 47.4027 194.813L47.1631 194.885L46.9235 194.956C48.1218 198.977 50.3886 205.14 51.9722 208.66L52.2002 208.558ZM47.1631 194.885L47.4028 194.814C46.2178 190.807 44.8247 185.274 44.325 182.533L44.0791 182.578L43.8332 182.623C44.3373 185.388 45.7358 190.941 46.9234 194.956L47.1631 194.885ZM44.0791 182.578L44.3249 182.533C43.8156 179.789 43.1678 175.383 42.3834 167.967L42.1348 167.993L41.8862 168.019C42.6712 175.442 43.3206 179.862 43.8333 182.624L44.0791 182.578ZM42.1348 167.993V167.743H33.9229V167.993V168.243H42.1348V167.993ZM33.9229 167.993V167.743C30.902 167.743 28.7876 167.825 27.3621 168.026C26.6497 168.127 26.0955 168.259 25.6813 168.432C25.2673 168.606 24.9684 168.831 24.8054 169.133L25.0254 169.252L25.2454 169.371C25.3333 169.208 25.517 169.043 25.8745 168.894C26.2317 168.744 26.7378 168.619 27.4319 168.521C28.8195 168.326 30.9029 168.243 33.9229 168.243V167.993ZM25.0254 169.252L24.8055 169.133C24.7289 169.275 24.5698 169.474 24.3306 169.718C24.095 169.958 23.7941 170.229 23.4475 170.514C22.7543 171.084 21.8883 171.701 21.018 172.229L21.1475 172.442L21.277 172.656C22.1675 172.117 23.0531 171.486 23.7651 170.9C24.121 170.608 24.4361 170.324 24.6876 170.068C24.9354 169.815 25.1346 169.576 25.2453 169.371L25.0254 169.252ZM21.1475 172.442L21.0188 172.228C20.1619 172.742 18.9992 173.216 17.8138 173.561C16.6276 173.907 15.4383 174.12 14.53 174.124L14.5312 174.374L14.5325 174.624C15.5039 174.619 16.7422 174.395 17.9538 174.041C19.1664 173.688 20.3719 173.2 21.2761 172.657L21.1475 172.442ZM14.5312 174.374L14.5313 174.124C12.6918 174.124 9.67182 173.414 7.85916 172.553L7.75195 172.779L7.64474 173.005C9.51843 173.895 12.6113 174.624 14.5312 174.624L14.5312 174.374ZM7.75195 172.779L7.85917 172.553C6.96497 172.129 5.90038 171.385 4.90645 170.525C3.91298 169.666 3.00537 168.704 2.41883 167.851L2.21289 167.993L2.00695 168.135C2.62493 169.033 3.56521 170.026 4.57932 170.903C5.59298 171.78 6.69566 172.555 7.64474 173.005L7.75195 172.779ZM2.21289 167.993L2.41953 167.852C1.5156 166.525 1.00152 165.533 0.736302 164.297C0.469024 163.052 0.450758 161.543 0.573882 159.174L0.324219 159.161L0.0745557 159.148C-0.0486567 161.519 -0.0350003 163.086 0.247436 164.402C0.531933 165.728 1.08535 166.782 2.00625 168.134L2.21289 167.993ZM0.324219 159.161L0.573872 159.174C0.706415 156.659 0.865781 155.201 1.33142 154.008C1.79404 152.824 2.56721 151.881 3.98875 150.42L3.80957 150.246L3.63039 150.072C2.20505 151.537 1.36786 152.541 0.865678 153.826C0.366516 155.105 0.206645 156.641 0.074565 159.148L0.324219 159.161ZM3.80957 150.246L3.98891 150.42C4.86199 149.521 6.02279 148.615 7.20293 147.872C8.3856 147.128 9.56995 146.559 10.4883 146.322L10.4258 146.08L10.3633 145.838C9.37446 146.093 8.1404 146.691 6.93661 147.449C5.73028 148.208 4.53655 149.139 3.63023 150.072L3.80957 150.246ZM10.4258 146.08L10.4875 146.322C12.7679 145.742 15.0602 145.785 17.6613 146.477L17.7256 146.235L17.7899 145.994C15.1169 145.282 12.7372 145.234 10.3641 145.838L10.4258 146.08ZM17.7256 146.235L17.6616 146.477C18.7024 146.753 19.9344 147.294 21.0795 147.947C22.2257 148.601 23.2665 149.357 23.9326 150.054L24.1133 149.881L24.2939 149.708C23.5822 148.964 22.4967 148.18 21.3274 147.513C20.1569 146.845 18.884 146.283 17.7896 145.994L17.7256 146.235ZM24.1133 149.881L23.933 150.054C24.5237 150.669 25.0243 151.164 25.6728 151.544C26.3243 151.926 27.1089 152.184 28.2624 152.361C30.5547 152.714 34.3794 152.757 41.6784 152.766L41.6787 152.516L41.679 152.266C34.3597 152.257 30.5834 152.212 28.3384 151.867C27.2233 151.696 26.5052 151.452 25.9257 151.113C25.3432 150.771 24.8845 150.323 24.2936 149.708L24.1133 149.881ZM41.6787 152.516L41.9253 152.557L43.5591 142.748L43.3125 142.707L43.0659 142.666L41.4321 152.475L41.6787 152.516ZM43.3125 142.707L43.5591 142.748C44.4513 137.364 46.5559 128.863 48.2216 123.862L47.9844 123.783L47.7472 123.704C46.0731 128.73 43.9623 137.257 43.0659 142.666L43.3125 142.707ZM47.9844 123.783L48.2214 123.863C49.8976 118.858 52.8136 111.695 54.6961 107.943L54.4727 107.831L54.2492 107.719C52.354 111.496 49.4293 118.682 47.7473 123.704L47.9844 123.783ZM54.4727 107.831L54.696 107.943C56.5836 104.19 59.1794 99.4783 60.4678 97.4843L60.2578 97.3486L60.0478 97.213C58.7448 99.2296 56.1395 103.961 54.2493 107.719L54.4727 107.831ZM60.2578 97.3486L60.4682 97.4836C61.7495 95.4866 64.7652 91.2903 67.1634 88.1568L66.9648 88.0049L66.7663 87.8529C64.3648 90.9908 61.3395 95.1997 60.0474 97.2136L60.2578 97.3486ZM66.9648 88.0049L67.1631 88.1572C68.3688 86.5878 69.4633 85.1089 70.2571 83.9905C70.6538 83.4316 70.9768 82.9607 71.2013 82.6128C71.3133 82.4393 71.4029 82.2931 71.4654 82.1804C71.4964 82.1243 71.523 82.0725 71.5426 82.0273C71.5566 81.9948 71.5857 81.9262 71.5859 81.8533L71.3359 81.8525L71.0859 81.8517C71.0861 81.8098 71.0997 81.7917 71.0838 81.8285C71.0733 81.8526 71.0554 81.8887 71.028 81.9382C70.9735 82.0364 70.8909 82.1717 70.7812 82.3417C70.5625 82.6806 70.2443 83.1446 69.8494 83.7011C69.06 84.8133 67.9693 86.287 66.7666 87.8526L66.9648 88.0049ZM71.3359 81.8525H71.5859C71.5859 81.8014 71.5721 81.7588 71.5637 81.7361C71.5539 81.7094 71.5416 81.6839 71.5295 81.6611C71.5053 81.6154 71.4727 81.5638 71.4353 81.509C71.3598 81.3983 71.2517 81.2556 71.117 81.0867C70.8467 80.748 70.4582 80.2905 69.9815 79.7481C69.0275 78.6626 67.7135 77.229 66.2701 75.7097L66.0889 75.8818L65.9076 76.054C67.3477 77.57 68.6572 78.9987 69.6059 80.0782C70.0806 80.6183 70.4631 81.069 70.7262 81.3986C70.8581 81.5639 70.9572 81.6953 71.0222 81.7907C71.055 81.8388 71.076 81.8732 71.0878 81.8954C71.0938 81.9066 71.0951 81.9105 71.0944 81.9087C71.094 81.9075 71.0923 81.9027 71.0905 81.8948C71.0888 81.8875 71.0859 81.8726 71.0859 81.8525H71.3359ZM66.0889 75.8818L66.27 75.7095C65.0026 74.3774 64.0286 73.3625 63.2271 72.6004C62.4266 71.8392 61.7859 71.318 61.1837 70.9817C59.9526 70.2942 58.9162 70.403 57.1544 70.6668L57.1914 70.9141L57.2284 71.1613C58.998 70.8964 59.8736 70.8228 60.9399 71.4183C61.4865 71.7234 62.0909 72.21 62.8826 72.9628C63.6732 73.7146 64.6384 74.72 65.9077 76.0542L66.0889 75.8818ZM57.1914 70.9141L57.1542 70.6669C55.7833 70.8734 54.6592 70.8828 53.4981 70.6495C52.3336 70.4155 51.1181 69.9345 49.5669 69.1417L49.4531 69.3643L49.3393 69.5869C50.9089 70.3891 52.1709 70.8928 53.3996 71.1397C54.6318 71.3873 55.8165 71.374 57.2286 71.1613L57.1914 70.9141ZM49.4531 69.3643L49.5672 69.1418C47.1638 67.9098 44.8324 65.8071 43.7758 63.9534L43.5586 64.0771L43.3414 64.2009C44.4565 66.1573 46.8699 68.321 49.3391 69.5867L49.4531 69.3643ZM43.5586 64.0771L43.7761 63.9538C42.7504 62.1451 41.9838 59.0975 41.9658 56.7188L41.7158 56.7207L41.4658 56.7226C41.4844 59.175 42.2681 62.3083 43.3411 64.2005L43.5586 64.0771ZM41.7158 56.7207L41.9658 56.7184C41.9389 53.7796 42.5808 51.6309 44.2335 49.1097L44.0244 48.9727L43.8153 48.8356C42.1101 51.4371 41.438 53.6823 41.4658 56.723L41.7158 56.7207ZM44.0244 48.9727L44.2337 49.1094C44.8623 48.1476 45.8116 47.0878 46.8353 46.1587C47.8603 45.2285 48.9438 44.4437 49.8348 44.0208L49.7275 43.7949L49.6203 43.5691C48.6681 44.0211 47.5434 44.8408 46.4993 45.7885C45.4539 46.7373 44.4733 47.8288 43.8151 48.8359L44.0244 48.9727ZM49.7275 43.7949L49.8347 44.0208C51.6471 43.1605 54.6663 42.4598 56.5044 42.4775L56.5068 42.2275L56.5092 41.9776C54.5881 41.959 51.4943 42.6795 49.6203 43.5691L49.7275 43.7949ZM56.5068 42.2275L56.5044 42.4775C57.414 42.4863 58.6041 42.697 59.7909 43.0353C60.9768 43.3734 62.1402 43.8335 62.9977 44.3305L63.123 44.1143L63.2484 43.898C62.3447 43.3741 61.1399 42.9 59.928 42.5545C58.7168 42.2092 57.4795 41.987 56.5093 41.9776L56.5068 42.2275ZM63.123 44.1143L62.9977 44.3305C64.735 45.3377 66.9424 47.2487 67.9036 48.5645L68.1055 48.417L68.3073 48.2695C67.2975 46.8872 65.0333 44.9327 63.2484 43.898L63.123 44.1143ZM68.1055 48.417L67.9035 48.5644C68.3953 49.2383 68.8643 50.2973 69.2346 51.5281C69.6037 52.7549 69.8691 54.1339 69.9635 55.436L70.2129 55.418L70.4622 55.3999C70.365 54.0587 70.0923 52.6437 69.7134 51.3841C69.3356 50.1285 68.8467 49.0087 68.3074 48.2696L68.1055 48.417ZM70.2129 55.418L69.9635 55.4353C70.0366 56.4873 70.1228 57.3514 70.3926 58.2269C70.6633 59.1054 71.1143 59.982 71.9005 61.074C73.4645 63.2466 76.3876 66.3139 81.9522 72.0001L82.1309 71.8252L82.3095 71.6503C76.7327 65.9516 73.8428 62.9163 72.3063 60.7819C71.5421 59.7205 71.1209 58.8925 70.8704 58.0796C70.619 57.2637 70.5352 56.4496 70.4623 55.4006L70.2129 55.418ZM82.1309 71.8252L82.2829 72.0237L90.3405 65.8528L90.1885 65.6543L90.0365 65.4558L81.9789 71.6267L82.1309 71.8252ZM90.1885 65.6543L90.3406 65.8527C94.7624 62.4627 102.486 57.6671 107.491 55.1948L107.38 54.9707L107.269 54.7466C102.236 57.2331 94.4843 62.0458 90.0364 65.4559L90.1885 65.6543ZM107.38 54.9707L107.491 55.1948C112.501 52.7194 119.881 49.6524 123.881 48.3719L123.805 48.1338L123.728 47.8957C119.699 49.1857 112.296 52.2633 107.269 54.7466L107.38 54.9707ZM123.805 48.1338L123.881 48.3719C127.886 47.0897 134.446 45.4337 138.451 44.6882L138.405 44.4424L138.36 44.1966C134.334 44.946 127.753 46.6073 123.728 47.8957L123.805 48.1338ZM138.405 44.4424L138.451 44.6882C142.455 43.9428 147.266 43.3432 152.548 43.3613L152.549 43.1113L152.55 42.8613C147.229 42.8431 142.386 43.447 138.36 44.1966L138.405 44.4424ZM152.549 43.1113L152.799 43.1119L152.817 35.1363L152.567 35.1357L152.317 35.1352L152.299 43.1107L152.549 43.1113ZM152.567 35.1357L152.817 35.1363C152.826 31.3183 152.806 29.2579 152.442 27.8284C152.07 26.3649 151.339 25.5617 150.024 24.2479L149.848 24.4248L149.671 24.6017C150.984 25.9132 151.622 26.6324 151.958 27.9515C152.302 29.3046 152.327 31.2871 152.317 35.1351L152.567 35.1357ZM149.848 24.4248L150.024 24.2474C149.287 23.5161 148.511 22.4424 147.857 21.2982C147.202 20.1537 146.68 18.9568 146.441 17.9843L146.198 18.0439L145.955 18.1036C146.209 19.1364 146.754 20.3778 147.423 21.5464C148.091 22.7154 148.893 23.8294 149.671 24.6022L149.848 24.4248ZM146.198 18.0439L146.441 17.9835C145.848 15.6045 145.85 13.3433 146.447 11.2765L146.207 11.207L145.967 11.1376C145.342 13.3004 145.344 15.6522 145.956 18.1044L146.198 18.0439ZM146.207 11.207L146.448 11.2745C146.935 9.53334 147.948 7.20652 148.67 6.10264L148.461 5.96582L148.252 5.829C147.495 6.98561 146.464 9.36222 145.966 11.1396L146.207 11.207ZM148.461 5.96582L148.67 6.10265C149.022 5.56437 149.674 4.86354 150.451 4.16705C151.224 3.47309 152.107 2.7968 152.908 2.30486L152.777 2.0918L152.647 1.87874C151.815 2.38947 150.908 3.08503 150.117 3.79483C149.328 4.50211 148.639 5.23695 148.252 5.82899L148.461 5.96582ZM152.777 2.0918L152.907 2.30526C154.642 1.24776 157.425 0.509948 159.851 0.500975L159.85 0.250977L159.849 0.000978276C157.347 0.0102358 154.471 0.766442 152.647 1.87833L152.777 2.0918ZM113.771 217.517L113.593 217.34L92.6468 238.437L92.8242 238.613L93.0016 238.789L113.948 217.693L113.771 217.517ZM92.8242 238.613L92.6665 238.807C99.3629 244.251 103.986 247.406 107.263 249.331L107.39 249.115L107.516 248.9C104.267 246.992 99.6653 243.852 92.9819 238.419L92.8242 238.613ZM107.39 249.115L107.263 249.331C110.529 251.254 116.493 254.144 120.514 255.754L120.606 255.521L120.699 255.289C116.699 253.687 110.758 250.809 107.517 248.9L107.39 249.115ZM120.606 255.521L120.513 255.753C124.533 257.372 130.896 259.474 134.671 260.444L134.733 260.202L134.796 259.96C131.043 258.996 124.701 256.901 120.7 255.29L120.606 255.521ZM134.733 260.202L134.671 260.444C138.435 261.414 144.089 262.493 147.247 262.85L147.275 262.602L147.304 262.353C144.173 261.999 138.542 260.925 134.796 259.96L134.733 260.202ZM147.275 262.602L147.247 262.85L152.953 263.498L152.981 263.25L153.01 263.002L147.304 262.353L147.275 262.602ZM152.981 263.25L153.231 263.25L153.213 203.482L152.963 203.482L152.713 203.482L152.731 263.25L152.981 263.25ZM152.963 203.482L153.004 203.236C147.737 202.355 143.65 200.777 140.536 199.164L140.421 199.386L140.306 199.608C143.462 201.243 147.598 202.839 152.922 203.729L152.963 203.482ZM140.421 199.386L140.536 199.164L134.821 196.198L134.706 196.42L134.591 196.642L140.306 199.608L140.421 199.386ZM134.706 196.42L134.529 196.244L113.593 217.34L113.771 217.517L113.948 217.693L134.884 196.596L134.706 196.42ZM180.735 198.984L180.609 198.768C178.138 200.21 174.166 201.907 171.803 202.539L171.867 202.78L171.932 203.022C174.344 202.376 178.357 200.661 180.861 199.2L180.735 198.984ZM171.867 202.78L171.803 202.539L167.464 203.698L167.528 203.939L167.593 204.181L171.932 203.022L171.867 202.78ZM167.528 203.939L167.278 203.94L167.297 262.794L167.547 262.794L167.797 262.794L167.778 203.939L167.528 203.939ZM167.547 262.794V263.044C172.517 263.044 177.146 262.393 181.04 261.596L180.99 261.352L180.94 261.107C177.069 261.898 172.475 262.544 167.547 262.544V262.794ZM180.99 261.352L181.04 261.597C184.94 260.801 190.583 259.33 193.603 258.322L193.523 258.085L193.444 257.848C190.448 258.848 184.825 260.314 180.94 261.107L180.99 261.352ZM193.523 258.085L193.602 258.322C196.626 257.322 202.79 254.671 207.306 252.433L207.195 252.209L207.084 251.985C202.578 254.218 196.437 256.858 193.445 257.848L193.523 258.085ZM207.195 252.209L207.306 252.433C211.829 250.192 218.304 246.316 221.699 243.806L221.551 243.604L221.402 243.403C218.035 245.893 211.586 249.755 207.084 251.985L207.195 252.209ZM221.551 243.604L221.699 243.806C223.398 242.557 224.918 241.341 225.998 240.388C226.537 239.913 226.972 239.498 227.265 239.176C227.411 239.016 227.529 238.872 227.607 238.749C227.646 238.688 227.681 238.624 227.704 238.56C227.724 238.501 227.747 238.406 227.712 238.304L227.476 238.385L227.239 238.465C227.22 238.411 227.238 238.377 227.231 238.396C227.227 238.408 227.214 238.435 227.186 238.48C227.13 238.567 227.034 238.687 226.896 238.839C226.62 239.142 226.201 239.542 225.667 240.013C224.601 240.954 223.094 242.161 221.403 243.403L221.551 243.604ZM227.476 238.385L227.712 238.304C227.7 238.269 227.682 238.24 227.674 238.226C227.662 238.208 227.649 238.19 227.636 238.173C227.609 238.137 227.574 238.094 227.533 238.046C227.45 237.948 227.333 237.818 227.184 237.656C226.886 237.333 226.455 236.881 225.908 236.315C224.813 235.183 223.245 233.59 221.321 231.654C217.472 227.783 212.197 222.536 206.423 216.846L206.247 217.024L206.072 217.202C211.845 222.891 217.119 228.137 220.966 232.007C222.89 233.942 224.456 235.533 225.549 236.663C226.095 237.228 226.522 237.677 226.816 237.995C226.964 238.155 227.076 238.28 227.153 238.37C227.191 238.415 227.219 238.449 227.236 238.473C227.245 238.485 227.25 238.492 227.252 238.495C227.256 238.501 227.247 238.489 227.239 238.466L227.476 238.385ZM206.247 217.024L206.422 216.846L185.431 196.178L185.256 196.356L185.08 196.535L206.072 217.203L206.247 217.024ZM185.256 196.356L185.13 196.14L180.61 198.768L180.735 198.984L180.861 199.201L185.382 196.573L185.256 196.356ZM203.367 167.896L203.128 167.824L201.542 173.071L201.781 173.144L202.021 173.216L203.606 167.969L203.367 167.896ZM201.781 173.144L201.542 173.072C200.681 175.939 198.948 179.923 197.714 181.908L197.926 182.04L198.138 182.172C199.401 180.142 201.15 176.115 202.021 173.215L201.781 173.144ZM197.926 182.04L197.713 181.908L195.444 185.557L195.656 185.689L195.869 185.821L198.138 182.172L197.926 182.04ZM195.656 185.689L195.479 185.866L238.008 228.388L238.185 228.211L238.361 228.034L195.833 185.513L195.656 185.689ZM238.185 228.211L238.374 228.374C243.012 222.991 246.183 218.546 248.395 215.022L248.184 214.889L247.972 214.756C245.773 218.258 242.618 222.682 237.995 228.048L238.185 228.211ZM248.184 214.889L248.395 215.022C250.617 211.498 253.741 205.537 255.342 201.756L255.111 201.658L254.881 201.561C253.291 205.317 250.18 211.254 247.972 214.755L248.184 214.889ZM255.111 201.658L255.341 201.756C256.942 197.983 259.179 191.191 260.312 186.663L260.069 186.603L259.827 186.542C258.699 191.048 256.47 197.815 254.881 201.561L255.111 201.658ZM260.069 186.603L260.312 186.663C261.443 182.141 262.622 176.07 262.934 173.17L262.686 173.144L262.437 173.117C262.129 175.984 260.956 182.031 259.827 186.542L260.069 186.603ZM262.686 173.144L262.934 173.17L263.499 167.923L263.25 167.896L263.001 167.87L262.437 173.117L262.686 173.144ZM263.25 167.896V167.646H203.367V167.896V168.146H263.25V167.896ZM117.416 167.896V167.646C88.3654 167.646 73.3216 167.674 65.54 167.887C61.6553 167.994 59.5607 168.147 58.4349 168.371C57.8772 168.482 57.5146 168.618 57.2925 168.807C57.0441 169.019 57.0014 169.269 57 169.492L57.25 169.493L57.5 169.495C57.5009 169.345 57.5243 169.267 57.6169 169.188C57.7356 169.087 57.9887 168.97 58.5326 168.861C59.6097 168.647 61.6613 168.494 65.5537 168.387C73.3265 168.174 88.3612 168.146 117.416 168.146V167.896ZM57.25 169.493H57C57 169.953 57.154 171.247 57.3956 172.935C57.6387 174.634 57.974 176.756 58.3435 178.888L58.5898 178.846L58.8362 178.803C58.4674 176.675 58.1329 174.558 57.8906 172.865C57.6468 171.161 57.5 169.909 57.5 169.493H57.25ZM58.5898 178.846L58.3435 178.888C59.0838 183.17 60.7458 189.753 62.0449 193.527L62.2812 193.445L62.5176 193.364C61.2281 189.618 59.5724 183.061 58.8362 178.803L58.5898 178.846ZM62.2812 193.445L62.0446 193.526C63.335 197.31 66.2578 203.892 68.5323 208.162L68.7529 208.045L68.9736 207.927C66.709 203.675 63.7978 197.118 62.5179 193.365L62.2812 193.445ZM68.7529 208.045L68.5322 208.162C70.8074 212.443 74.798 218.723 77.4048 222.139L77.6035 221.987L77.8022 221.836C75.2137 218.444 71.2375 212.187 68.9737 207.928L68.7529 208.045ZM77.6035 221.987L77.4048 222.139L82.1255 228.326L82.3242 228.175L82.523 228.023L77.8023 221.836L77.6035 221.987ZM82.3242 228.175L82.5009 228.352L125.049 185.866L124.872 185.689L124.695 185.513L82.1476 227.998L82.3242 228.175ZM124.872 185.689L125.091 185.57C120.844 177.795 119.181 173.814 118.643 171.712L118.4 171.774L118.158 171.836C118.714 174.005 120.405 178.035 124.653 185.809L124.872 185.689ZM118.4 171.774L118.643 171.713L117.658 167.835L117.416 167.896L117.174 167.958L118.158 171.836L118.4 171.774ZM161.622 131.689L161.633 131.44C155.853 131.192 153.324 131.512 149.678 133.009L149.773 133.24L149.868 133.471C153.423 132.012 155.871 131.694 161.611 131.939L161.622 131.689ZM149.773 133.24L149.679 133.009C147.158 134.037 143.755 135.899 142.102 137.156L142.253 137.355L142.404 137.554C144.014 136.33 147.376 134.488 149.868 133.472L149.773 133.24ZM142.253 137.355L142.101 137.157C140.453 138.417 137.911 141.195 136.45 143.347L136.657 143.487L136.864 143.628C138.302 141.51 140.808 138.775 142.405 137.554L142.253 137.355ZM136.657 143.487L136.45 143.347C134.984 145.508 133.077 149.74 132.196 152.771L132.437 152.841L132.677 152.911C133.546 149.919 135.432 145.737 136.864 143.628L136.657 143.487ZM132.437 152.841L132.196 152.772C131.168 156.337 130.754 160.082 131.03 163.355L131.279 163.334L131.528 163.313C131.258 160.108 131.663 156.425 132.677 152.91L132.437 152.841ZM131.279 163.334L131.03 163.355C131.269 166.147 132.342 170.282 133.413 172.565L133.64 172.459L133.866 172.353C132.822 170.128 131.763 166.051 131.528 163.313L131.279 163.334ZM133.64 172.459L133.413 172.565C134.482 174.852 136.92 178.503 138.838 180.699L139.026 180.534L139.215 180.37C137.323 178.204 134.912 174.592 133.866 172.353L133.64 172.459ZM139.026 180.534L138.838 180.698C140.766 182.915 144.595 185.801 147.386 187.147L147.494 186.922L147.603 186.697C144.87 185.378 141.096 182.533 139.215 180.37L139.026 180.534ZM147.494 186.922L147.386 187.147C149.505 188.169 151.09 188.784 152.97 189.14C154.844 189.494 157 189.59 160.255 189.59V189.34V189.09C157.002 189.09 154.887 188.994 153.063 188.648C151.244 188.304 149.703 187.71 147.603 186.697L147.494 186.922ZM160.255 189.34V189.59C163.524 189.59 165.679 189.494 167.55 189.138C169.427 188.781 171.005 188.164 173.125 187.137L173.016 186.912L172.907 186.687C170.806 187.705 169.272 188.301 167.457 188.647C165.636 188.994 163.521 189.09 160.255 189.09V189.34ZM173.016 186.912L173.125 187.137C175.914 185.782 179.813 182.89 181.804 180.693L181.619 180.525L181.434 180.357C179.488 182.504 175.641 185.359 172.906 186.687L173.016 186.912ZM181.619 180.525L181.804 180.693C183.796 178.497 186.264 174.853 187.307 172.563L187.079 172.459L186.852 172.355C185.834 174.591 183.398 178.192 181.434 180.357L181.619 180.525ZM187.079 172.459L187.307 172.563C188.741 169.412 189.207 166.478 189.207 160.597H188.957H188.707C188.707 166.45 188.243 169.301 186.852 172.355L187.079 172.459ZM188.957 160.597L189.207 160.597C189.212 157.32 189.121 155.167 188.767 153.297C188.412 151.422 187.796 149.844 186.766 147.713L186.541 147.822L186.316 147.931C187.337 150.044 187.933 151.577 188.276 153.39C188.62 155.209 188.712 157.322 188.707 160.596L188.957 160.597ZM186.541 147.822L186.766 147.713C185.414 144.932 182.625 141.101 180.558 139.198L180.389 139.382L180.219 139.566C182.236 141.422 184.988 145.201 186.316 147.932L186.541 147.822ZM180.389 139.382L180.558 139.198C178.493 137.305 175.057 134.855 172.901 133.757L172.787 133.979L172.674 134.202C174.783 135.276 178.183 137.699 180.22 139.566L180.389 139.382ZM172.787 133.979L172.901 133.757C170.084 132.31 166.87 131.659 161.633 131.44L161.622 131.689L161.612 131.939C166.819 132.158 169.949 132.803 172.673 134.202L172.787 133.979ZM82.5977 93.0732L82.5963 92.8232C82.514 92.8237 82.4423 92.8556 82.3974 92.8789C82.346 92.9055 82.2928 92.941 82.2397 92.9805C82.1331 93.0598 82.006 93.1716 81.8635 93.308C81.5774 93.5818 81.2101 93.9734 80.7883 94.4512C79.9439 95.408 78.8695 96.7241 77.7689 98.1688L77.9678 98.3203L78.1666 98.4718C79.2618 97.0343 80.3285 95.7278 81.1632 94.7821C81.581 94.3086 81.9378 93.929 82.2092 93.6692C82.3455 93.5387 82.4556 93.4431 82.5382 93.3816C82.5798 93.3506 82.6092 93.3323 82.6276 93.3227C82.6525 93.3098 82.6379 93.323 82.599 93.3232L82.5977 93.0732ZM77.9678 98.3203L77.7689 98.1688C75.5663 101.06 72.3249 105.896 70.5605 108.916L70.7764 109.042L70.9922 109.168C72.7461 106.166 75.976 101.347 78.1666 98.4718L77.9678 98.3203ZM70.7764 109.042L70.5602 108.916C68.802 111.942 65.7985 118.323 63.8909 123.093L64.123 123.186L64.3552 123.278C66.2574 118.522 69.2507 112.165 70.9925 109.168L70.7764 109.042ZM64.123 123.186L63.8909 123.093C61.9812 127.877 59.6516 135.483 58.7277 140.016L58.9727 140.066L59.2176 140.116C60.1348 135.616 62.455 128.039 64.3552 123.278L64.123 123.186ZM58.9727 140.066L58.7278 140.016C58.2624 142.277 57.838 144.563 57.5298 146.427C57.2233 148.281 57.0274 149.74 57.0273 150.331L57.2773 150.331L57.5273 150.331C57.5274 149.79 57.7144 148.376 58.0231 146.509C58.3301 144.652 58.7533 142.372 59.2175 140.117L58.9727 140.066ZM57.2773 150.331L57.0274 150.329L57.0098 152.383L57.2598 152.385L57.5098 152.387L57.5273 150.333L57.2773 150.331ZM57.2598 152.385L57.2578 152.635C80.0369 152.813 94.8363 152.901 104.004 152.931C108.588 152.946 111.764 152.945 113.827 152.934C114.858 152.929 115.612 152.92 116.124 152.91C116.38 152.904 116.577 152.898 116.718 152.892C116.848 152.886 116.958 152.878 117.017 152.864L116.96 152.621L116.903 152.378C116.907 152.377 116.896 152.379 116.853 152.383C116.815 152.386 116.763 152.389 116.695 152.392C116.56 152.398 116.368 152.404 116.113 152.41C115.605 152.42 114.854 152.429 113.824 152.434C111.764 152.445 108.589 152.446 104.006 152.431C94.8391 152.401 80.0406 152.313 57.2617 152.135L57.2598 152.385ZM116.96 152.621L117.018 152.864C117.134 152.837 117.236 152.771 117.322 152.696C117.409 152.62 117.493 152.523 117.572 152.413C117.731 152.194 117.889 151.901 118.04 151.561C118.341 150.881 118.624 149.98 118.818 149.021L118.573 148.972L118.328 148.922C118.14 149.852 117.867 150.717 117.582 151.359C117.44 151.681 117.298 151.939 117.167 152.12C117.102 152.21 117.043 152.276 116.993 152.319C116.941 152.364 116.911 152.376 116.902 152.378L116.96 152.621ZM118.573 148.972L118.818 149.021C119.194 147.165 120.75 143.183 122.269 140.179L122.046 140.066L121.823 139.954C120.297 142.972 118.718 147.001 118.328 148.922L118.573 148.972ZM122.046 140.066L122.269 140.18L125.049 134.704L124.826 134.591L124.603 134.478L121.823 139.953L122.046 140.066ZM124.826 134.591L125.003 134.414C108.888 118.322 98.4192 107.942 91.9343 101.585C88.692 98.4064 86.4447 96.2326 84.9853 94.853C84.2559 94.1635 83.7217 93.6707 83.3577 93.3497C83.1762 93.1896 83.034 93.0696 82.9299 92.9886C82.8783 92.9485 82.8316 92.9145 82.7917 92.8894C82.7719 92.8769 82.749 92.8636 82.7246 92.8525C82.7077 92.8449 82.6592 92.8232 82.5977 92.8232V93.0732V93.3232C82.5685 93.3232 82.5469 93.3176 82.5375 93.3149C82.5269 93.3118 82.5199 93.3087 82.5177 93.3077C82.5137 93.3059 82.5156 93.3064 82.5255 93.3127C82.5449 93.3248 82.5765 93.3472 82.6229 93.3833C82.7148 93.4547 82.8478 93.5667 83.0269 93.7247C83.3843 94.0399 83.9136 94.5279 84.6418 95.2163C86.0978 96.5927 88.3425 98.764 91.5842 101.942C98.0674 108.298 108.535 118.676 124.65 134.768L124.826 134.591ZM237.948 93.0732V92.8232C237.888 92.8232 237.841 92.8435 237.823 92.8512C237.799 92.862 237.776 92.8751 237.756 92.8872C237.716 92.9117 237.669 92.9445 237.619 92.9824C237.518 93.0589 237.384 93.1696 237.221 93.3105C236.892 93.5932 236.433 94.0081 235.86 94.5396C234.712 95.6031 233.097 97.1401 231.134 99.0356C227.209 102.827 221.89 108.057 216.124 113.81L216.301 113.987L216.477 114.164C222.242 108.412 227.559 103.184 231.482 99.3952C233.443 97.5005 235.055 95.9664 236.199 94.9064C236.772 94.3761 237.226 93.9661 237.547 93.6894C237.708 93.5506 237.833 93.448 237.921 93.381C237.966 93.3472 237.997 93.3258 238.016 93.314C238.026 93.308 238.028 93.3073 238.025 93.309C238.022 93.3099 238.016 93.3127 238.006 93.3156C237.997 93.3181 237.976 93.3232 237.948 93.3232V93.0732ZM216.301 113.987L216.124 113.81L195.169 134.724L195.346 134.901L195.522 135.078L216.477 114.164L216.301 113.987ZM195.346 134.901L195.134 135.034C198.526 140.442 200.211 144.254 201.069 146.984L201.308 146.909L201.546 146.834C200.672 144.053 198.965 140.201 195.557 134.769L195.346 134.901ZM201.308 146.909L201.069 146.985L202.655 152.003L202.894 151.928L203.132 151.852L201.546 146.834L201.308 146.909ZM202.894 151.928L202.892 152.178L263.248 152.635L263.25 152.385L263.252 152.135L202.895 151.678L202.894 151.928ZM263.25 152.385L263.499 152.359C262.65 144.221 261.674 138.97 260.776 135.442L260.534 135.504L260.292 135.566C261.181 139.063 262.155 144.289 263.001 152.411L263.25 152.385ZM260.534 135.504L260.776 135.442C259.88 131.917 257.835 125.747 256.227 121.724L255.995 121.816L255.763 121.909C257.364 125.916 259.402 132.065 260.292 135.566L260.534 135.504ZM255.995 121.816L256.227 121.724C254.619 117.699 251.733 111.738 249.821 108.46L249.605 108.586L249.39 108.712C251.288 111.967 254.163 117.905 255.763 121.909L255.995 121.816ZM249.605 108.586L249.821 108.46C247.911 105.194 244.66 100.357 242.593 97.7104L242.396 97.8643L242.198 98.0182C244.251 100.645 247.49 105.463 249.39 108.712L249.605 108.586ZM242.396 97.8643L242.592 97.7099C241.555 96.3877 240.534 95.1846 239.723 94.3104C239.318 93.8738 238.962 93.5156 238.68 93.2647C238.54 93.1397 238.413 93.0369 238.304 92.9638C238.25 92.9273 238.195 92.8948 238.142 92.8707C238.093 92.8484 238.025 92.8234 237.949 92.8232L237.948 93.0732L237.948 93.3232C237.92 93.3232 237.912 93.3151 237.935 93.3258C237.954 93.3345 237.984 93.351 238.025 93.3786C238.107 93.4338 238.215 93.5199 238.348 93.6382C238.612 93.8738 238.956 94.2189 239.357 94.6504C240.156 95.5123 241.168 96.7044 242.199 98.0186L242.396 97.8643ZM152.973 57.4873L152.968 57.2373C146.946 57.3471 142.518 57.9694 139.247 58.6756L139.3 58.9199L139.353 59.1643C142.59 58.4653 146.986 57.8465 152.977 57.7373L152.973 57.4873ZM139.3 58.9199L139.246 58.6757C135.984 59.3893 130.635 60.8508 127.374 61.9117L127.451 62.1494L127.529 62.3872C130.775 61.3312 136.108 59.874 139.353 59.1641L139.3 58.9199ZM127.451 62.1494L127.373 61.9119C124.102 62.9853 117.526 65.8845 112.753 68.3512L112.868 68.5732L112.983 68.7953C117.744 66.3348 124.293 63.4487 127.529 62.387L127.451 62.1494ZM112.868 68.5732L112.753 68.3512C107.978 70.819 101.711 74.6782 98.8141 76.9356L98.9678 77.1328L99.1215 77.33C101.985 75.0981 108.224 71.2549 112.983 68.7953L112.868 68.5732ZM98.9678 77.1328L98.8141 76.9356C97.3684 78.0624 96.0755 79.1888 95.1577 80.0984C94.6996 80.5524 94.3298 80.9575 94.0807 81.2848C93.9567 81.4477 93.8567 81.5988 93.7913 81.7323C93.7332 81.8509 93.6728 82.0124 93.713 82.168L93.9551 82.1055L94.1971 82.043C94.2055 82.0754 94.1879 82.0591 94.2403 81.9524C94.2853 81.8605 94.3636 81.7386 94.4785 81.5876C94.7074 81.287 95.0587 80.9005 95.5097 80.4536C96.4101 79.5612 97.6872 78.4478 99.1215 77.33L98.9678 77.1328ZM93.9551 82.1055L93.7133 82.1693C93.7292 82.2292 93.7649 82.2846 93.7854 82.3156C93.8122 82.356 93.8471 82.4033 93.888 82.4557C93.9702 82.561 94.0859 82.699 94.2317 82.8665C94.5238 83.2023 94.945 83.666 95.4801 84.2421C96.5508 85.3949 98.0831 87.0036 99.9627 88.9504C103.722 92.8444 108.875 98.0943 114.513 103.761L114.69 103.585L114.868 103.409C109.231 97.7429 104.08 92.4948 100.322 88.6031C98.4436 86.6571 96.9139 85.0511 95.8465 83.9018C95.3125 83.327 94.8956 82.8679 94.6088 82.5383C94.4652 82.3732 94.3563 82.243 94.2822 82.1481C94.245 82.1004 94.2189 82.0645 94.2022 82.0394C94.1792 82.0047 94.189 82.012 94.1968 82.0417L93.9551 82.1055ZM114.69 103.585L114.513 103.761L135.021 124.347L135.198 124.171L135.375 123.994L114.868 103.409L114.69 103.585ZM135.198 124.171L135.303 124.398C144.489 120.142 148.475 118.594 150.086 118.209L150.028 117.966L149.97 117.723C148.3 118.122 144.265 119.695 135.093 123.944L135.198 124.171ZM150.028 117.966L150.086 118.209L153.076 117.497L153.018 117.254L152.96 117.011L149.97 117.723L150.028 117.966ZM153.018 117.254L153.268 117.254L153.223 57.4871L152.973 57.4873L152.723 57.4875L152.768 117.254L153.018 117.254ZM167.684 87.4805L167.434 87.4794L167.306 117.709L167.556 117.71L167.806 117.711L167.934 87.4815L167.684 87.4805ZM167.556 117.71L167.517 117.957C172.788 118.774 176.866 120.2 179.982 121.66L180.088 121.434L180.194 121.207C177.038 119.729 172.914 118.288 167.594 117.463L167.556 117.71ZM180.088 121.434L179.982 121.66L185.679 124.324L185.785 124.098L185.891 123.871L180.194 121.207L180.088 121.434ZM185.785 124.098L185.962 124.274L227.889 82.3007L227.712 82.124L227.535 81.9473L185.608 123.921L185.785 124.098ZM227.712 82.124L227.878 81.9372C224.685 79.0978 220.883 76.3433 217.369 73.9953L217.23 74.2031L217.092 74.411C220.596 76.753 224.377 79.493 227.546 82.3108L227.712 82.124ZM217.23 74.2031L217.37 73.9955C213.849 71.6338 207.686 68.1695 203.665 66.2758L203.559 66.502L203.452 66.7281C207.452 68.612 213.593 72.0641 217.091 74.4107L217.23 74.2031ZM203.559 66.502L203.665 66.2756C199.643 64.3904 192.858 61.8317 188.59 60.5871L188.52 60.8271L188.45 61.0672C192.694 62.3046 199.454 64.8542 203.452 66.7283L203.559 66.502ZM188.52 60.8271L188.59 60.5871C184.322 59.3429 177.898 58.025 174.316 57.6673L174.291 57.916L174.266 58.1648C177.811 58.5188 184.204 59.8295 188.45 61.0672L188.52 60.8271ZM174.291 57.916L174.317 57.6673L167.846 57.0013L167.82 57.25L167.795 57.4987L174.265 58.1647L174.291 57.916ZM167.82 57.25L167.57 57.2489L167.434 87.4793L167.684 87.4805L167.934 87.4816L168.07 57.2511L167.82 57.25Z" fill="white"/>
</svg>
